<?xml version="1.0" encoding="UTF-8" standalone="no" ?>
<!DOCTYPE svg PUBLIC "-//W3C//DTD SVG 1.1//EN" "http://www.w3.org/Graphics/SVG/1.1/DTD/svg11.dtd">
<svg xmlns="http://www.w3.org/2000/svg"
	xmlns:xlink="http://www.w3.org/1999/xlink" version="1.1" width="1080" height="1080" viewBox="0 0 1080 1080" xml:space="preserve">

	<defs>
	</defs>
	<g transform="matrix(1 0 0 1 540 540)" id="7cfc3287-8038-4101-9a13-561fe69aa6ec">
		<rect style="stroke: none; stroke-width: 1; stroke-dasharray: none; stroke-linecap: butt; stroke-dashoffset: 0; stroke-linejoin: miter; stroke-miterlimit: 4; fill: rgb(255,255,255); fill-rule: nonzero; opacity: 1; visibility: hidden;" vector-effect="non-scaling-stroke" x="-540" y="-540" rx="0" ry="0" width="1080" height="1080" />
	</g>
	<g transform="matrix(1 0 0 1 540 540)" id="a33fc063-4497-4f25-9d82-36810ede96f3">
	</g>
	<g transform="matrix(1 0 0 1 540 836.79)">
		<g style="" vector-effect="non-scaling-stroke">
			<g transform="matrix(9.15 0 0 9.15 0.05 380.41)" id="text-0">
				<path style="stroke: none; stroke-width: 1; stroke-dasharray: none; stroke-linecap: butt; stroke-dashoffset: 0; stroke-linejoin: miter; stroke-miterlimit: 4; fill: #ffffff; fill-rule: nonzero; opacity: 1;" vector-effect="non-scaling-stroke" transform=" translate(-82.55, 13.15)" d="M 0.65 0 L 5.3 -26.3 L 8.65 -26.3 L 8.45 -22.35 L 8.75 -22.35 Q 11.35 -26.9 15.75 -26.9 L 15.75 -26.9 Q 17.1 -26.9 18.05 -26.5 L 18.05 -26.5 L 17.3 -22.25 L 15.45 -22.25 Q 12.65 -22.25 10.5 -20.5 Q 8.35 -18.75 7.7 -15.05 L 7.7 -15.05 L 5.05 0 L 0.65 0 Z M 29.3 0.6 Q 23.45 0.6 20.57 -1.95 Q 17.7 -4.5 17.7 -9.8 L 17.7 -9.8 Q 17.7 -14.65 19.2 -18.53 Q 20.7 -22.4 23.9 -24.65 Q 27.1 -26.9 31.9 -26.9 L 31.9 -26.9 Q 36.9 -26.9 39.55 -24.6 Q 42.2 -22.3 42.2 -17.85 L 42.2 -17.85 Q 42.2 -16.3 41.8 -14.15 L 41.8 -14.15 L 41.4 -11.95 L 22.35 -11.95 Q 22.2 -11.25 22.2 -10.05 L 22.2 -10.05 Q 22.2 -6.5 23.92 -4.78 Q 25.65 -3.05 29.2 -3.05 L 29.2 -3.05 Q 32.05 -3.05 34.07 -4.5 Q 36.1 -5.95 36.6 -8.95 L 36.6 -8.95 L 40.9 -8.95 Q 40.15 -4.35 36.95 -1.88 Q 33.75 0.6 29.3 0.6 L 29.3 0.6 Z M 23 -15.6 L 37.55 -15.6 Q 37.75 -16.3 37.75 -17.55 L 37.75 -17.55 Q 37.75 -23.25 31.75 -23.25 L 31.75 -23.25 Q 28.35 -23.25 26.12 -21.28 Q 23.9 -19.3 23 -15.6 L 23 -15.6 Z M 45.1 0 L 49.75 -26.3 L 52.95 -26.3 L 52.95 -22.75 L 53.3 -22.75 Q 56.6 -26.9 61.55 -26.9 L 61.55 -26.9 Q 67 -26.9 68 -22.75 L 68 -22.75 L 68.3 -22.75 Q 69.95 -24.75 72.2 -25.83 Q 74.45 -26.9 76.8 -26.9 L 76.8 -26.9 Q 83.75 -26.9 83.75 -21.2 L 83.75 -21.2 Q 83.75 -20 83.55 -18.95 L 83.55 -18.95 L 80.2 0 L 75.8 0 L 79 -18.15 Q 79.2 -19.35 79.2 -19.7 L 79.2 -19.7 Q 79.2 -21.65 78.22 -22.45 Q 77.25 -23.25 75.6 -23.25 L 75.6 -23.25 Q 72.8 -23.25 70.47 -21.05 Q 68.15 -18.85 67.5 -15.15 L 67.5 -15.15 L 64.85 0 L 60.45 0 L 63.65 -18.15 Q 63.8 -19.05 63.8 -19.75 L 63.8 -19.75 Q 63.8 -21.7 62.9 -22.48 Q 62 -23.25 60.35 -23.25 L 60.35 -23.25 Q 58.55 -23.25 56.82 -22.28 Q 55.1 -21.3 53.85 -19.45 Q 52.6 -17.6 52.15 -15.15 L 52.15 -15.15 L 49.5 0 L 45.1 0 Z M 97.89 0.6 Q 92.84 0.6 90.02 -2.15 Q 87.19 -4.9 87.19 -9.8 L 87.19 -9.8 Q 87.19 -11.1 87.44 -13.45 L 87.44 -13.45 Q 88.44 -20.25 91.84 -23.58 Q 95.24 -26.9 101.09 -26.9 L 101.09 -26.9 Q 106.19 -26.9 109.02 -24.2 Q 111.84 -21.5 111.84 -16.65 L 111.84 -16.65 Q 111.84 -15.85 111.54 -12.85 L 111.54 -12.85 Q 110.54 -6.05 107.14 -2.73 Q 103.74 0.6 97.89 0.6 L 97.89 0.6 Z M 98.09 -3.1 Q 102.04 -3.1 104.19 -5.55 Q 106.34 -8 107.14 -13.45 L 107.14 -13.45 Q 107.44 -15.55 107.44 -17.15 L 107.44 -17.15 Q 107.34 -20.15 105.72 -21.7 Q 104.09 -23.25 100.89 -23.25 L 100.89 -23.25 Q 96.94 -23.25 94.79 -20.78 Q 92.64 -18.3 91.84 -12.85 L 91.84 -12.85 Q 91.59 -11.1 91.59 -9.15 L 91.59 -9.15 Q 91.69 -6.2 93.32 -4.65 Q 94.94 -3.1 98.09 -3.1 L 98.09 -3.1 Z M 121.34 0 L 116.34 -26.3 L 120.89 -26.3 L 123.24 -13.15 Q 123.74 -10.35 124.34 -4.9 L 124.34 -4.9 L 124.59 -4.9 Q 126.89 -10.05 128.54 -13.15 L 128.54 -13.15 L 135.44 -26.3 L 140.04 -26.3 L 125.74 0 L 121.34 0 Z M 151.54 0.6 Q 145.69 0.6 142.81 -1.95 Q 139.94 -4.5 139.94 -9.8 L 139.94 -9.8 Q 139.94 -14.65 141.44 -18.53 Q 142.94 -22.4 146.14 -24.65 Q 149.34 -26.9 154.14 -26.9 L 154.14 -26.9 Q 159.14 -26.9 161.79 -24.6 Q 164.44 -22.3 164.44 -17.85 L 164.44 -17.85 Q 164.44 -16.3 164.04 -14.15 L 164.04 -14.15 L 163.64 -11.95 L 144.59 -11.95 Q 144.44 -11.25 144.44 -10.05 L 144.44 -10.05 Q 144.44 -6.5 146.16 -4.78 Q 147.89 -3.05 151.44 -3.05 L 151.44 -3.05 Q 154.29 -3.05 156.31 -4.5 Q 158.34 -5.95 158.84 -8.95 L 158.84 -8.95 L 163.14 -8.95 Q 162.39 -4.35 159.19 -1.88 Q 155.99 0.6 151.54 0.6 L 151.54 0.6 Z M 145.24 -15.6 L 159.79 -15.6 Q 159.99 -16.3 159.99 -17.55 L 159.99 -17.55 Q 159.99 -23.25 153.99 -23.25 L 153.99 -23.25 Q 150.59 -23.25 148.36 -21.28 Q 146.14 -19.3 145.24 -15.6 L 145.24 -15.6 Z" stroke-linecap="round" />
			</g>
			<g transform="matrix(3.44 0 0 3.44 0 643.41)" id="text-1">
				<path style="stroke: none; stroke-width: 1; stroke-dasharray: none; stroke-linecap: butt; stroke-dashoffset: 0; stroke-linejoin: miter; stroke-miterlimit: 4; fill: #ffffff; fill-rule: nonzero; opacity: 1;" vector-effect="non-scaling-stroke" transform=" translate(-218.87, 13.52)" d="M 0.8 0 L 4.5 -26.3 L 7.7 -26.3 L 7.7 -22.1 Q 8.75 -24.3 9.88 -25.6 Q 11 -26.9 12.95 -26.9 L 12.95 -26.9 Q 14 -26.9 14.85 -26.5 L 14.85 -26.5 L 14.25 -22.25 L 12.9 -22.25 Q 10.85 -22.25 9.18 -20.4 Q 7.5 -18.55 7.05 -15.2 L 7.05 -15.2 L 4.9 0 L 0.8 0 Z M 36.68 0.6 Q 32.53 0.6 30.35 -1.78 Q 28.18 -4.15 28.18 -8.95 L 28.18 -8.95 Q 28.18 -16.1 30.7 -21.5 Q 33.23 -26.9 39.33 -26.9 L 39.33 -26.9 Q 47.43 -26.9 47.43 -17.45 L 47.43 -17.45 Q 47.43 -14.5 47.03 -11.95 L 47.03 -11.95 L 32.58 -11.95 Q 32.43 -10.4 32.43 -9.3 L 32.43 -9.3 Q 32.43 -3.05 36.68 -3.05 L 36.68 -3.05 Q 38.83 -3.05 40.35 -4.75 Q 41.88 -6.45 42.23 -8.9 L 42.23 -8.9 L 46.38 -8.9 Q 45.73 -4.8 43.2 -2.1 Q 40.68 0.6 36.68 0.6 L 36.68 0.6 Z M 33.08 -15.6 L 43.13 -15.6 Q 43.18 -16.25 43.18 -17.4 L 43.18 -17.4 Q 43.18 -23.25 39.33 -23.25 L 39.33 -23.25 Q 36.83 -23.25 35.3 -21.08 Q 33.78 -18.9 33.08 -15.6 L 33.08 -15.6 Z M 63.11 0 L 66.81 -26.3 L 70.01 -26.3 L 70.01 -22.4 Q 70.81 -24.05 72.46 -25.48 Q 74.11 -26.9 76.76 -26.9 L 76.76 -26.9 Q 79.16 -26.9 80.41 -25.63 Q 81.66 -24.35 81.96 -22.3 L 81.96 -22.3 Q 82.81 -24 84.43 -25.45 Q 86.06 -26.9 88.76 -26.9 L 88.76 -26.9 Q 91.56 -26.9 92.81 -25.23 Q 94.06 -23.55 94.06 -21 L 94.06 -21 Q 94.06 -19.5 91.26 0 L 91.26 0 L 87.16 0 Q 89.86 -18.55 89.86 -20.05 L 89.86 -20.05 Q 89.86 -23.25 87.26 -23.25 L 87.26 -23.25 Q 85.01 -23.25 83.46 -21.1 Q 81.91 -18.95 81.41 -15.35 L 81.41 -15.35 L 79.26 0 L 75.16 0 Q 77.86 -18.55 77.86 -20.05 L 77.86 -20.05 Q 77.86 -23.25 75.26 -23.25 L 75.26 -23.25 Q 72.91 -23.25 71.36 -20.93 Q 69.81 -18.6 69.26 -14.7 L 69.26 -14.7 L 67.21 0 L 63.11 0 Z M 118.89 0.6 Q 110.59 0.6 110.59 -8.75 L 110.59 -8.75 Q 110.59 -13 111.56 -17.1 Q 112.54 -21.2 115.04 -24.05 Q 117.54 -26.9 121.74 -26.9 L 121.74 -26.9 Q 130.04 -26.9 130.04 -17.45 L 130.04 -17.45 Q 130.04 -13.2 129.06 -9.13 Q 128.09 -5.05 125.59 -2.23 Q 123.09 0.6 118.89 0.6 L 118.89 0.6 Z M 118.89 -3.05 Q 121.64 -3.05 123.19 -5.65 Q 124.74 -8.25 125.26 -11.53 Q 125.79 -14.8 125.79 -17.4 L 125.79 -17.4 Q 125.79 -23.25 121.74 -23.25 L 121.74 -23.25 Q 118.99 -23.25 117.46 -20.73 Q 115.94 -18.2 115.39 -15.03 Q 114.84 -11.85 114.84 -9.3 L 114.84 -9.3 Q 114.84 -6.1 115.81 -4.58 Q 116.79 -3.05 118.89 -3.05 L 118.89 -3.05 Z M 150.72 0 L 146.82 -26.3 L 151.17 -26.3 L 153.07 -12.15 L 153.87 -5.95 L 154.07 -5.95 L 156.62 -12.1 L 162.47 -26.3 L 166.87 -26.3 L 155.17 0 L 150.72 0 Z M 188.04 0.6 Q 183.89 0.6 181.72 -1.78 Q 179.54 -4.15 179.54 -8.95 L 179.54 -8.95 Q 179.54 -16.1 182.07 -21.5 Q 184.59 -26.9 190.69 -26.9 L 190.69 -26.9 Q 198.79 -26.9 198.79 -17.45 L 198.79 -17.45 Q 198.79 -14.5 198.39 -11.95 L 198.39 -11.95 L 183.94 -11.95 Q 183.79 -10.4 183.79 -9.3 L 183.79 -9.3 Q 183.79 -3.05 188.04 -3.05 L 188.04 -3.05 Q 190.19 -3.05 191.72 -4.75 Q 193.24 -6.45 193.59 -8.9 L 193.59 -8.9 L 197.74 -8.9 Q 197.09 -4.8 194.57 -2.1 Q 192.04 0.6 188.04 0.6 L 188.04 0.6 Z M 184.44 -15.6 L 194.49 -15.6 Q 194.54 -16.25 194.54 -17.4 L 194.54 -17.4 Q 194.54 -23.25 190.69 -23.25 L 190.69 -23.25 Q 188.19 -23.25 186.67 -21.08 Q 185.14 -18.9 184.44 -15.6 L 184.44 -15.6 Z M 239.45 0 L 243.1 -26.3 L 247.2 -26.3 L 243.5 0 L 239.45 0 Z M 243.7 -31.4 L 244.4 -36.15 L 248.65 -36.15 L 247.95 -31.4 L 243.7 -31.4 Z M 267.48 0.5 Q 265.33 0.5 264.38 -0.68 Q 263.43 -1.85 263.43 -3.75 L 263.43 -3.75 Q 263.43 -5 266.03 -22.65 L 266.03 -22.65 L 263.78 -22.65 L 264.28 -26.3 L 266.53 -26.3 L 268.33 -33.6 L 271.68 -33.6 L 270.63 -26.3 L 274.18 -26.3 L 273.68 -22.65 L 270.13 -22.65 Q 267.63 -5.45 267.63 -4.9 L 267.63 -4.9 Q 267.63 -3.05 269.48 -3.05 L 269.48 -3.05 L 270.93 -3.05 L 270.53 -0.2 Q 269.93 0.1 269.08 0.3 Q 268.23 0.5 267.48 0.5 L 267.48 0.5 Z M 320.34 0.6 Q 316.19 0.6 314.01 -1.78 Q 311.84 -4.15 311.84 -8.95 L 311.84 -8.95 Q 311.84 -16.1 314.36 -21.5 Q 316.89 -26.9 322.99 -26.9 L 322.99 -26.9 Q 331.09 -26.9 331.09 -17.45 L 331.09 -17.45 Q 331.09 -14.5 330.69 -11.95 L 330.69 -11.95 L 316.24 -11.95 Q 316.09 -10.4 316.09 -9.3 L 316.09 -9.3 Q 316.09 -3.05 320.34 -3.05 L 320.34 -3.05 Q 322.49 -3.05 324.01 -4.75 Q 325.54 -6.45 325.89 -8.9 L 325.89 -8.9 L 330.04 -8.9 Q 329.39 -4.8 326.86 -2.1 Q 324.34 0.6 320.34 0.6 L 320.34 0.6 Z M 316.74 -15.6 L 326.79 -15.6 Q 326.84 -16.25 326.84 -17.4 L 326.84 -17.4 Q 326.84 -23.25 322.99 -23.25 L 322.99 -23.25 Q 320.49 -23.25 318.96 -21.08 Q 317.44 -18.9 316.74 -15.6 L 316.74 -15.6 Z M 353.97 0.6 Q 350.92 0.6 349.12 -1.85 Q 347.32 -4.3 347.32 -9.15 L 347.32 -9.15 Q 347.32 -14.9 348.79 -18.9 Q 350.27 -22.9 352.59 -24.9 Q 354.92 -26.9 357.47 -26.9 L 357.47 -26.9 Q 361.62 -26.9 362.92 -22.65 L 362.92 -22.65 L 363.82 -26.3 L 367.07 -26.3 Q 364.02 -5 364.02 -4.45 L 364.02 -4.45 Q 364.02 -3.75 364.34 -3.4 Q 364.67 -3.05 365.22 -3.05 L 365.22 -3.05 L 366.82 -3.05 L 366.42 -0.2 Q 365.27 0.6 363.62 0.6 L 363.62 0.6 Q 361.97 0.6 361.02 -0.4 Q 360.07 -1.4 360.02 -3.55 L 360.02 -3.55 Q 358.57 -1.4 357.14 -0.4 Q 355.72 0.6 353.97 0.6 L 353.97 0.6 Z M 355.22 -3.05 Q 357.37 -3.05 358.79 -5.65 Q 360.22 -8.25 360.87 -11.68 Q 361.52 -15.1 361.52 -17.6 L 361.52 -17.6 Q 361.52 -23.25 358.07 -23.25 L 358.07 -23.25 Q 355.62 -23.25 354.14 -20.73 Q 352.67 -18.2 352.09 -14.85 Q 351.52 -11.5 351.52 -8.75 L 351.52 -8.75 Q 351.52 -3.05 355.22 -3.05 L 355.22 -3.05 Z M 390.55 0.6 Q 388.25 0.6 386.37 -0.4 Q 384.5 -1.4 383.4 -3.25 Q 382.3 -5.1 382.3 -7.5 L 382.3 -7.5 Q 382.3 -8.55 382.4 -9.1 L 382.4 -9.1 L 386.65 -9.1 Q 386.5 -8.3 386.5 -7.5 L 386.5 -7.5 Q 386.5 -5.3 387.75 -4.15 Q 389 -3 390.95 -3 L 390.95 -3 Q 392.65 -3 393.7 -4.08 Q 394.75 -5.15 394.75 -6.75 L 394.75 -6.75 Q 394.75 -8.6 393.65 -9.68 Q 392.55 -10.75 390.3 -12.1 L 390.3 -12.1 Q 388.5 -13.15 387.4 -14 Q 386.3 -14.85 385.52 -16.2 Q 384.75 -17.55 384.75 -19.5 L 384.75 -19.5 Q 384.75 -22.75 386.87 -24.83 Q 389 -26.9 392.85 -26.9 L 392.85 -26.9 Q 396.6 -26.9 398.47 -24.53 Q 400.35 -22.15 400.35 -18.65 L 400.35 -18.65 L 396.1 -18.65 Q 396.1 -21.15 395.05 -22.23 Q 394 -23.3 392.4 -23.3 L 392.4 -23.3 Q 391.15 -23.3 390.07 -22.43 Q 389 -21.55 389 -20.1 L 389 -20.1 Q 389 -18.25 390.07 -17.25 Q 391.15 -16.25 393.35 -15.05 L 393.35 -15.05 Q 395.15 -14.05 396.27 -13.23 Q 397.4 -12.4 398.2 -10.98 Q 399 -9.55 399 -7.4 L 399 -7.4 Q 399 -3.65 396.72 -1.53 Q 394.45 0.6 390.55 0.6 L 390.55 0.6 Z M 416.28 9.1 Q 414.43 9.1 413.43 8.7 L 413.43 8.7 L 413.83 5.85 L 415.23 5.85 Q 419.23 5.85 421.23 0 L 421.23 0 L 416.88 -26.3 L 421.23 -26.3 L 423.48 -10.45 L 424.23 -5.3 L 424.43 -5.3 L 426.43 -10.45 L 432.53 -26.3 L 436.93 -26.3 L 426.23 -1.35 Q 424.08 3.6 421.75 6.35 Q 419.43 9.1 416.28 9.1 L 416.28 9.1 Z" stroke-linecap="round" />
			</g>
			<g transform="matrix(3.79 0 0 3.79 0 -292.7)">
				<path style="stroke: rgb(255,255,255); stroke-opacity: 0; stroke-width: 1; stroke-dasharray: none; stroke-linecap: butt; stroke-dashoffset: 0; stroke-linejoin: miter; stroke-miterlimit: 4; fill: #ffffff; fill-rule: nonzero; opacity: 1;" vector-effect="non-scaling-stroke" transform=" translate(-113.06, -113.06)" d="M 0 113.06 C 0 50.619 50.619 0 113.06 0 C 175.501 0 226.12 50.619 226.12 113.06 C 226.12 175.501 175.501 226.12 113.06 226.12 C 50.619 226.12 0 175.501 0 113.06 z M 113.06 220.131 C 172.19400000000002 220.131 220.132 172.19299999999998 220.131 113.06 C 220.131 53.926 172.19299999999998 5.9879999999999995 113.06 5.9879999999999995 C 53.926 5.9879999999999995 5.9879999999999995 53.926 5.9879999999999995 113.06 C 5.9879999999999995 172.19400000000002 53.926 220.132 113.06 220.131 z" stroke-linecap="round" />
			</g>
			<g transform="matrix(6.62 0 0 6.62 122.7 -292.7)">
				<path style="stroke: none; stroke-width: 1; stroke-dasharray: none; stroke-linecap: butt; stroke-dashoffset: 0; stroke-linejoin: miter; stroke-miterlimit: 4; fill: none; fill-rule: nonzero; opacity: 1;" vector-effect="non-scaling-stroke" transform=" translate(-68.54, -50)" d="M 52.25 20.875 L 54.834 20.875 L 54.834 18.135 L 56.834 18.135 L 56.834 22.875 L 52.25 22.875 L 52.25 24.43 L 60.5 24.43 L 60.5 18.135 L 62.5 18.135 L 62.5 26.43 L 52.25 26.43 L 52.25 28 L 66.25 28 L 66.25 20.552 L 68.25 20.552 L 68.25 30 L 52.25 30 L 52.25 31.874 L 70.75 31.874 L 70.75 23.552 L 72.75 23.552 L 72.75 33.874 L 52.25 33.874 L 52.25 38.526 L 72.75 38.526 L 72.75 46.581 L 63.832 55.499 L 62.418 54.085 L 70.75 45.753 L 70.75 40.526 L 52.25 40.526 L 52.25 46.923 L 60.834 46.923 L 60.834 54.665 L 52.501 54.665 L 52.501 70 L 52.25 70 L 52.25 71 L 69.834 71 L 69.834 73 L 52.25 73 L 52.25 77.336 L 53.836 75.75 L 72.25 75.75 L 72.25 68.5 L 57.167 68.5 L 57.167 58 L 64.253 58 L 75.5 46.753 L 75.5 18.135 L 77.5 18.135 L 77.5 47.581 L 65.081 60 L 59.167 60 L 59.167 66.5 L 81.5 66.5 L 81.5 68.5 L 74.25 68.5 L 74.25 77.75 L 54.664 77.75 L 52.25 80.164 L 52.25 84.509 L 84.833 84.509 L 84.833 15.491 L 52.25 15.491 z M 81.5 82 L 58.167 82 L 58.167 80 L 81.5 80 z M 82.5 62.75 L 80.5 62.75 L 80.5 56.875 L 82.5 56.875 z M 80.313 18.135 L 82.313 18.135 L 82.313 51.352 L 69.414 64.25 L 61.5 64.25 L 61.5 62.25 L 68.586 62.25 L 80.313 50.523 z" stroke-linecap="round" />
			</g>
			<g transform="matrix(6.62 0 0 6.62 36.67 -287.44)">
				<rect style="stroke: none; stroke-width: 1; stroke-dasharray: none; stroke-linecap: butt; stroke-dashoffset: 0; stroke-linejoin: miter; stroke-miterlimit: 4; fill: none; fill-rule: nonzero; opacity: 1;" vector-effect="non-scaling-stroke" x="-3.292" y="-1.871" rx="0" ry="0" width="6.584" height="3.742" />
			</g>
			<g transform="matrix(6.62 0 0 6.62 0 -292.7)">
				<path style="stroke: none; stroke-width: 1; stroke-dasharray: none; stroke-linecap: butt; stroke-dashoffset: 0; stroke-linejoin: miter; stroke-miterlimit: 4; fill: #ffffff; fill-rule: nonzero; opacity: 1;" vector-effect="non-scaling-stroke" transform=" translate(-50, -50)" d="M 52.25 13.491 L 13.167 13.491 L 13.167 86.509 L 86.833 86.509 L 86.833 13.491 z M 52.25 48.924 L 58.834 48.924 L 58.834 52.666 L 52.25 52.666 z M 84.833 84.509 L 52.25 84.509 L 52.25 80.164 L 54.664 77.75 L 74.25 77.75 L 74.25 68.5 L 81.5 68.5 L 81.5 66.5 L 59.167 66.5 L 59.167 60 L 65.081 60 L 77.5 47.581 L 77.5 18.135 L 75.5 18.135 L 75.5 46.753 L 64.253 58 L 57.167 58 L 57.167 68.5 L 72.25 68.5 L 72.25 75.75 L 53.836 75.75 L 52.25 77.336 L 52.25 73 L 69.834 73 L 69.834 71 L 52.25 71 L 52.25 70 L 52.501 70 L 52.501 54.666 L 60.834 54.666 L 60.834 46.924 L 52.25 46.924 L 52.25 40.527 L 70.75 40.527 L 70.75 45.754 L 62.418 54.086 L 63.832 55.5 L 72.75 46.582 L 72.75 38.527 L 52.25 38.527 L 52.25 33.875 L 72.75 33.875 L 72.75 23.552 L 70.75 23.552 L 70.75 31.874 L 52.25 31.874 L 52.25 30 L 68.25 30 L 68.25 20.552 L 66.25 20.552 L 66.25 28 L 52.25 28 L 52.25 26.43 L 62.5 26.43 L 62.5 18.135 L 60.5 18.135 L 60.5 24.43 L 52.25 24.43 L 52.25 22.875 L 56.834 22.875 L 56.834 18.135 L 54.834 18.135 L 54.834 20.875 L 52.25 20.875 L 52.25 15.492 L 84.833 15.492 z" stroke-linecap="round" />
			</g>
			<g transform="matrix(6.62 0 0 6.62 131.25 -87.56)">
				<rect style="stroke: none; stroke-width: 1; stroke-dasharray: none; stroke-linecap: butt; stroke-dashoffset: 0; stroke-linejoin: miter; stroke-miterlimit: 4; fill: #ffffff; fill-rule: nonzero; opacity: 1;" vector-effect="non-scaling-stroke" x="-11.6665" y="-1" rx="0" ry="0" width="23.333" height="2" />
			</g>
			<g transform="matrix(6.62 0 0 6.62 144.96 -350.98)">
				<polygon style="stroke: none; stroke-width: 1; stroke-dasharray: none; stroke-linecap: butt; stroke-dashoffset: 0; stroke-linejoin: miter; stroke-miterlimit: 4; fill: #ffffff; fill-rule: nonzero; opacity: 1;" vector-effect="non-scaling-stroke" points="-10.41,21.06 -10.41,23.06 -2.49,23.06 10.41,10.16 10.41,-23.06 8.41,-23.06 8.41,9.33 -3.32,21.06 " />
			</g>
			<g transform="matrix(6.62 0 0 6.62 208.45 -227.76)">
				<rect style="stroke: none; stroke-width: 1; stroke-dasharray: none; stroke-linecap: butt; stroke-dashoffset: 0; stroke-linejoin: miter; stroke-miterlimit: 4; fill: #ffffff; fill-rule: nonzero; opacity: 1;" vector-effect="non-scaling-stroke" x="-1" y="-2.9375" rx="0" ry="0" width="2" height="5.875" />
			</g>
			<g transform="matrix(5.83 0 0 5.83 0 0)">
				<rect style="stroke: none; stroke-width: 1; stroke-dasharray: none; stroke-linecap: butt; stroke-dashoffset: 0; stroke-linejoin: miter; stroke-miterlimit: 4; fill: none; fill-rule: nonzero; opacity: 1;" vector-effect="non-scaling-stroke" x="-128.44932104620705" y="-123.6" rx="0" ry="0" width="256.8986420924141" height="247.2" />
			</g>
		</g>
	</g>
</svg>